<svg xmlns="http://www.w3.org/2000/svg" xmlns:xlink="http://www.w3.org/1999/xlink" width="400" height="400" viewBox="0 0 400 400"><defs><linearGradient id="gradient-5" x1="0%" y1="50.00000000000001%" x2="100%" y2="49.99999999999999%"><stop offset="0.00" stop-color="#f2709c"></stop><stop offset="1.00" stop-color="#ff9472"></stop></linearGradient></defs>
<rect data-name="background" width="100%" height="100%" fill="none"></rect><g data-name="icon" fill="url(#gradient-5)" data="id:7876086" transform="translate(100,100) scale(2)">
    
 <path d="m95.09 65.703c-0.89453-10.773-2.3047-21.641-4.1875-32.297l-0.035156-0.21094c-1.1914-6.7578-7.0391-11.664-13.902-11.664h-10.195c-0.99219 0-1.9844 0.23438-2.8672 0.67969l-4.2031 2.1016c-0.45312 0.22656-0.96094 0.34766-1.4688 0.34766h-16.461c-0.50781 0-1.0156-0.12109-1.4688-0.34766l-4.1992-2.1016c-0.88672-0.44531-1.8789-0.67969-2.8711-0.67969h-10.195c-6.8633 0-12.711 4.9062-13.906 11.672l-0.03125 0.19531c-1.8828 10.66-3.2891 21.527-4.1875 32.301-0.16406 1.9688 0.21484 3.9453 1.1562 5.8281 1.4062 2.8086 3.7852 5 6.7031 6.1641 1.2852 0.51562 2.6445 0.76953 4.0039 0.76953 1.6562 0 3.3086-0.38281 4.8203-1.1367 1.9492-0.97656 3.543-2.5 4.6016-4.4062l4.6328-8.3398c1.3672 2.2773 3.8359 3.8203 6.6797 3.8203 3.7734 0 6.9297-2.6875 7.6562-6.25h9.6914c0.72656 3.5625 3.8828 6.25 7.6562 6.25 2.8438 0 5.3125-1.543 6.6797-3.8203l4.6328 8.3398c1.0586 1.9062 2.6484 3.4297 4.6016 4.4062 2.75 1.375 5.9648 1.5117 8.8203 0.36719 2.9141-1.1641 5.2969-3.3555 6.7578-6.2812 0.88281-1.7656 1.2656-3.7422 1.0977-5.7148zm-57.59-0.42188c-2.5859 0-4.6875-2.1016-4.6875-4.6875s2.1016-4.6875 4.6875-4.6875 4.6875 2.1016 4.6875 4.6875-2.1016 4.6875-4.6875 4.6875zm25 0c-2.5859 0-4.6875-2.1016-4.6875-4.6875s2.1016-4.6875 4.6875-4.6875 4.6875 2.1016 4.6875 4.6875-2.1016 4.6875-4.6875 4.6875zm28.641 4.8516c-1.0625 2.125-2.8633 3.7812-5.0664 4.6602-2.0273 0.8125-4.3086 0.71875-6.2656-0.26172-1.3867-0.69141-2.5156-1.7734-3.2656-3.1289l-6.2812-11.305c-0.26172-4.0742-3.625-7.3164-7.7617-7.3164-3.7734 0-6.9297 2.6875-7.6562 6.25h-9.6914c-0.72656-3.5625-3.8828-6.25-7.6562-6.25-4.1367 0-7.5 3.2422-7.7617 7.3164l-6.2812 11.309c-0.75 1.3555-1.8828 2.4375-3.2656 3.125-1.9492 0.97656-4.2344 1.0703-6.2656 0.26172-2.2031-0.88281-4.0039-2.5391-5.1211-4.7773-0.625-1.2539-0.89844-2.6562-0.78125-4.0586 0.89062-10.68 2.2852-21.453 4.1523-32.023l0.03125-0.19531c0.92969-5.2656 5.4844-9.082 10.828-9.082h10.195c0.50781 0 1.0156 0.12109 1.4688 0.34766l4.2031 2.1016c0.88281 0.44141 1.875 0.67578 2.8672 0.67578h16.461c0.99219 0 1.9844-0.23438 2.8672-0.67578l4.2031-2.1016c0.45312-0.22656 0.96094-0.34766 1.4688-0.34766h10.195c5.3438 0 9.8984 3.8203 10.828 9.0781l0.035157 0.21094c1.8633 10.566 3.2617 21.336 4.1484 32.02 0.11719 1.3984-0.15625 2.8008-0.83594 4.1719z"></path>
 <path d="m76.562 34.812c0 3.125-4.6875 3.125-4.6875 0s4.6875-3.125 4.6875 0"></path>
 <path d="m71.875 39.5c0 3.125-4.6875 3.125-4.6875 0s4.6875-3.125 4.6875 0"></path>
 <path d="m76.562 44.188c0 3.125-4.6875 3.125-4.6875 0s4.6875-3.125 4.6875 0"></path>
 <path d="m81.25 39.5c0 3.125-4.6875 3.125-4.6875 0s4.6875-3.125 4.6875 0"></path>
 <path d="m28.125 34.812c0 3.125-4.6875 3.125-4.6875 0s4.6875-3.125 4.6875 0"></path>
 <path d="m23.438 39.5c0 3.125-4.6875 3.125-4.6875 0s4.6875-3.125 4.6875 0"></path>
 <path d="m28.125 44.188c0 3.125-4.6875 3.125-4.6875 0s4.6875-3.125 4.6875 0"></path>
 <path d="m32.812 39.5c0 3.125-4.6875 3.125-4.6875 0s4.6875-3.125 4.6875 0"></path>
 <path d="m46.875 37.156h-3.125c-0.86328 0-1.5625 0.69922-1.5625 1.5625s0.69922 1.5625 1.5625 1.5625h3.125c0.86328 0 1.5625-0.69922 1.5625-1.5625s-0.69922-1.5625-1.5625-1.5625z"></path>
 <path d="m56.25 37.156h-3.125c-0.86328 0-1.5625 0.69922-1.5625 1.5625s0.69922 1.5625 1.5625 1.5625h3.125c0.86328 0 1.5625-0.69922 1.5625-1.5625s-0.69922-1.5625-1.5625-1.5625z"></path>

    </g></svg>